# xmcd
#
# Track frame offsets:
# 150
# 20450
# 40049
# 57434
# 72801
# 91679
# 112739
# 123894
# 135854
# 160390
# 183137
# 199963
# 215636
#
# Disc length: 3560 seconds
#
#
# Revision: 0
# Processed by: cddbd v1.5.2PL0 Copyright (c) Steve Scherf et al.
# Submitted via: FreeRIP 2.942 
#
DISCID=a50de60d
DTITLE=Big Gilson and The Wolf - Chrysalis
DYEAR=2005
DGENRE=Blues
TTITLE0=Big Mama's House
TTITLE1=Chrysalis
TTITLE2=Country Girl
TTITLE3=Ride The Rocket
TTITLE4=Tighter Bites The Chains
TTITLE5=Hey Good Buddy
TTITLE6=Big Boss Mama
TTITLE7=Lulu Boogie
TTITLE8=Rio Baby
TTITLE9=It Can't Go On
TTITLE10=What's Wrong Whit That
TTITLE11=Sliding' Around
TTITLE12=Movie Track
EXTD=
EXTT0=
EXTT1=
EXTT2=
EXTT3=
EXTT4=
EXTT5=
EXTT6=
EXTT7=
EXTT8=
EXTT9=
EXTT10=
EXTT11=
EXTT12=
PLAYORDER=
